<svg xmlns="http://www.w3.org/2000/svg" version="1.1" xmlns:xlink="http://www.w3.org/1999/xlink" xmlns:svgjs="http://svgjs.dev/svgjs" width="100%" height="100%" viewBox="0 0 1000 600"><rect width="1000" height="600" x="0" y="0" fill="#ffe5ec"/><g><circle r="166.66666666666666" cx="352.9836069742838" cy="375.2058514302596" fill="#fb6f92" transform="matrix(0.6708998291083605,0,0,0.6708998291083605,0,48.27446843832206)"/><path d="M331.6564603773255 407.3604351142911L331.6564603773255 407.3604351142911Q331.6564603773255 424.45491890790436 346.21134833578543 424.45491890790436L346.21134833578543 424.45491890790436Q362.13161039916645 424.45491890790436 367.6204143009497 413.4500036222396L367.6204143009497 413.4500036222396Q369.5865530120362 409.5177262000666 369.5865530120362 403.3189277637244Q369.5865530120362 397.1201293273822 366.6373449454064 391.82247780028797L366.6373449454064 391.82247780028797Q361.7219981676901 383.3571583497766 349.7340135264821 373.1441600449661L349.7340135264821 373.1441600449661Q329.88147404092797 356.2408286260418 329.88147404092797 338.05404554849156Q329.88147404092797 319.86726247094134 341.2960015580692 310.0365689155088Q352.68322159311185 300.2058753600762 367.42926192626066 300.2058753600762Q382.17530225940953 300.2058753600762 390.8317740846099 307.6608179729459Q399.4882459098102 315.143068067914 399.4882459098102 330.0802607757518L399.4882459098102 330.0802607757518Q399.4882459098102 339.91095433118437 392.9071427240901 347.2020520514635Q386.29873205627155 354.46584228964423 375.48496914529574 356.2408286260418L375.48496914529574 356.2408286260418Q380.400315923012 360.3642584229038 385.31566270072824 364.67884059445475L385.31566270072824 364.67884059445475Q390.0398571037556 369.02073024810414 393.9721345259286 374.12722940050935L393.9721345259286 374.12722940050935Q402.62860635112895 385.73290929233946 402.62860635112895 401.8443237304095L402.62860635112895 401.8443237304095Q402.62860635112895 413.0676988728616 397.41287727033 422.10647544743995Q392.19714818953105 431.14525202201816 383.8410586674134 437.3440504583604Q375.48496914529574 443.54284889470256 365.08081846579626 446.8743617107103Q354.64936030419835 450.205874526718 345.6105837296201 450.205874526718L345.6105837296201 450.205874526718Q326.33150136813293 450.205874526718 315.7361983139445 441.3582503268287L315.7361983139445 441.3582503268287Q303.3386014412601 431.3364043967072 303.3386014412601 412.46693426669634L303.3386014412601 412.46693426669634Q303.3386014412601 400.06933739401194 311.3943086602951 388.49096498428025Q319.4500158793301 376.88528509245015 328.5160999360068 376.88528509245015L328.5160999360068 376.88528509245015Q335.5887377994986 376.88528509245015 335.5887377994986 381.1998672640011L335.5887377994986 381.1998672640011Q335.5887377994986 387.507895628737 333.6225990884121 393.6793865829808Q331.6564603773255 399.878185019323 331.6564603773255 407.3604351142911ZM369.80501286882355 351.5166342230145L369.80501286882355 351.5166342230145Q381.00108052917733 340.3205665626607 381.00108052917733 328.1141220646653L381.00108052917733 328.1141220646653Q381.00108052917733 324.37299701718126 377.06880310700427 321.83340118202784L377.06880310700427 321.83340118202784Q372.7542209354533 319.45765023946495 368.030026532426 319.45765023946495L368.030026532426 319.45765023946495Q357.4074159961392 319.45765023946495 352.68322159311185 326.33913572826776L352.68322159311185 326.33913572826776Q355.0589725356747 334.80445517877916 359.67393701030835 340.70287131203867Q364.28890148494196 346.6012874452982 369.80501286882355 351.5166342230145Z " fill="#ffe5ec" transform="matrix(0.6708998291083605,0,0,0.6708998291083605,0,48.27446843832206)"/><path d="M623.0986925527341 382.47019517172305L623.0986925527341 382.47019517172305Q623.0986925527341 394.61295965854487 633.4375000151558 394.61295965854487L633.4375000151558 394.61295965854487Q644.7461768455347 394.61295965854487 648.6450517047219 386.79581255281136L648.6450517047219 386.79581255281136Q650.04166359458 384.0025887730951 650.04166359458 379.59938184257027Q650.04166359458 375.1961749120454 647.9467457597929 371.4330817643722L647.9467457597929 371.4330817643722Q644.4552160351476 365.41989168303866 635.939762984485 358.1652688107202L635.939762984485 358.1652688107202Q621.8378623743899 346.15828603541235 621.8378623743899 333.23962605422486Q621.8378623743899 320.32096607303737 629.9459702905106 313.33790662374685Q638.0346808192721 306.3548471744563 648.5092699932079 306.3548471744563Q658.9838591671437 306.3548471744563 665.1328309599912 311.65033392350165Q671.2818027528386 316.9652180599061 671.2818027528386 327.5755889453559L671.2818027528386 327.5755889453559Q671.2818027528386 334.5586483946464 666.6070323992858 339.73775081953687Q661.9128646583739 344.89745585706817 654.2314992641543 346.15828603541235L654.2314992641543 346.15828603541235Q657.7230289887996 349.0872915266425 661.2145587134448 352.1520787293867L661.2145587134448 352.1520787293867Q664.5703067265761 355.23626331949 667.3635305062924 358.86357475564927L667.3635305062924 358.86357475564927Q673.5125022991398 367.1074643832839 673.5125022991398 378.5519229251767L673.5125022991398 378.5519229251767Q673.5125022991398 386.52424912978336 669.807601313544 392.94478434565883Q666.1027003279482 399.36531956153425 660.1670997960513 403.76852649205915Q654.2314992641543 408.171733422584 646.8410946803219 410.5382146803991Q639.4312927091303 412.9046959382143 633.0107574932548 412.9046959382143L633.0107574932548 412.9046959382143Q619.3162020177017 412.9046959382143 611.7900157223553 406.61994243385277L611.7900157223553 406.61994243385277Q602.9836018613055 399.5011012730483 602.9836018613055 386.0975066078823L602.9836018613055 386.0975066078823Q602.9836018613055 377.2910927468326 608.7058311322519 369.06660050655705Q614.4280604031983 360.8227108789224 620.8679930064329 360.8227108789224L620.8679930064329 360.8227108789224Q625.8919163324503 360.8227108789224 625.8919163324503 363.8874980816666L625.8919163324503 363.8874980816666Q625.8919163324503 368.36829456162803 624.4953044425922 372.7521041047937Q623.0986925527341 377.15531103531856 623.0986925527341 382.47019517172305ZM650.1968426934532 342.80253802228106L650.1968426934532 342.80253802228106Q658.1497715107007 334.84960920503346 658.1497715107007 326.17897705549774L658.1497715107007 326.17897705549774Q658.1497715107007 323.5215349872955 655.3565477309844 321.71757796289546L655.3565477309844 321.71757796289546Q652.2917605282403 320.03000526265026 648.936012515109 320.03000526265026L648.936012515109 320.03000526265026Q641.3904288324034 320.03000526265026 638.0346808192721 324.9181468771536L638.0346808192721 324.9181468771536Q639.7222535195174 330.9313369584871 643.0004119832121 335.12117262806146Q646.2785704469068 339.3110082976358 650.1968426934532 342.80253802228106ZM715.837601516784 396.7078774933321L715.837601516784 396.7078774933321Q726.7195358252618 396.7078774933321 736.9225615761695 388.0566427311555L736.9225615761695 388.0566427311555Q740.6856547238428 384.83667642953816 743.0715333690171 382.1210421992585Q745.4380146268322 379.3860105816197 746.6988448051763 379.3860105816197L746.6988448051763 379.3860105816197Q748.6579809284495 379.3860105816197 748.6579809284495 383.3042828281661Q748.6579809284495 387.22255507471243 746.5630630936623 392.03310713977925Q744.4681452588752 396.843659204846 739.5800036443718 401.4602373963215L739.5800036443718 401.4602373963215Q727.5536234817048 412.76891422670025 706.6044451338332 412.76891422670025L706.6044451338332 412.76891422670025Q690.0002815544092 412.76891422670025 683.9870914730757 400.7619314513924L683.9870914730757 400.7619314513924Q681.8921736382885 396.57209578181806 681.8921736382885 388.7549486760845Q681.8921736382885 380.9378015703509 684.9569608410327 372.4805406817658Q688.0411454311359 364.02327979318056 693.1426583065899 357.89370538769225Q698.2247737946846 351.7447335948447 704.9362698209471 348.3113960322769Q711.6477658472097 344.89745585706817 719.2515416919928 344.89745585706817Q726.8553175367757 344.89745585706817 730.9869610442727 348.6605490047414Q735.0992071644105 352.4430395397738 735.0992071644105 358.43683223374813Q735.0992071644105 364.45002231508164 732.0926121237437 368.29070501219144Q729.105414470436 372.13138770930124 724.3530545674466 374.7112402280669Q719.6006946644573 377.2910927468326 713.8008758440743 379.3278184195423Q708.0010570236914 381.3451467048929 702.414609464259 383.86680706158114L702.414609464259 383.86680706158114L702.414609464259 387.3583367862264Q702.5697885631321 392.3822601122437 706.6044451338332 394.47717794703095Q710.6584990918936 396.57209578181806 715.837601516784 396.7078774933321ZM713.4517228716098 357.33118115427715L713.4517228716098 357.33118115427715Q706.1970999992913 357.33118115427715 703.4038762195751 374.2263055440884L703.4038762195751 374.2263055440884Q706.3328817108053 372.2671694208152 708.9127342295709 370.73477581944314Q711.4925867483366 369.202382218071 713.4517228716098 367.80577032821293L713.4517228716098 367.80577032821293Q717.6415585411842 364.7215857381096 717.7773402526981 360.8227108789224L717.7773402526981 360.8227108789224Q717.7773402526981 357.33118115427715 713.4517228716098 357.33118115427715ZM762.0615755936155 388.4639878656974L762.0615755936155 388.4639878656974L762.8956632500585 405.5142913543818Q762.8956632500585 408.8700393675131 759.4041335254133 411.5080840483561Q755.912603800768 414.1655261165584 749.8994137194345 414.1655261165584L749.8994137194345 414.1655261165584Q746.4078839947892 414.1655261165584 745.0888616543677 410.5382146803991Q743.7698393139461 406.9109032442399 743.7698393139461 399.92784379494935L743.7698393139461 399.92784379494935Q743.7698393139461 385.26341895143923 745.2246433658817 376.94193977436805Q746.6988448051763 368.639857984656 751.0244621862646 360.1244049339934L751.0244621862646 360.1244049339934Q744.6039269703892 353.97543314114586 744.6039269703892 349.5140340485436L744.6039269703892 349.5140340485436Q744.6039269703892 340.14509595407884 754.6517736224239 340.14509595407884L754.6517736224239 340.14509595407884Q759.8308760473144 340.14509595407884 763.7297509065015 345.59576180199724L763.7297509065015 345.59576180199724Q766.5229746862178 349.3588549496705 767.783804864562 354.402175663047L767.783804864562 354.402175663047Q769.742940987835 355.100481607976 772.6719464790652 355.100481607976L772.6719464790652 355.100481607976Q776.7260004371255 355.100481607976 782.0214871861709 352.4430395397738L782.0214871861709 352.4430395397738L785.6681960096893 350.6196851280146Q787.3363713225754 349.7855974715716 788.5972015009195 349.7855974715716L788.5972015009195 349.7855974715716Q792.6512554589798 349.7855974715716 796.685912029681 361.65679853536545L796.685912029681 361.65679853536545Q795.444479238696 367.1074643832839 793.9702777994014 372.13138770930124Q792.4960763601067 377.15531103531856 790.5563376241927 384.2741521961231Q788.5972015009195 391.4123907442867 788.519611951483 393.8564615515384Q788.4614197894055 396.3005323587901 789.9938133907776 396.3005323587901L789.9938133907776 396.3005323587901Q792.0887312255647 396.3005323587901 795.1535184283089 393.64309029058785Q798.2377030184122 390.98564822238563 801.3024902211564 387.8432714702049Q804.3672774239005 384.7008947180242 806.9665273300253 382.043452649822Q809.546379848791 379.3860105816197 810.5162492167481 379.3860105816197L810.5162492167481 379.3860105816197Q812.4753853400213 379.3860105816197 812.4753853400213 384.1383704846091L812.4753853400213 384.1383704846091Q812.4753853400213 393.7788720021019 804.018124451436 403.1284127092075Q795.58026095021 412.4973508036723 784.6789292543731 412.36156909215833L784.6789292543731 412.36156909215833Q778.2583940384977 412.36156909215833 775.0384277368804 407.1824666672679Q771.8378588226221 402.0227616297365 771.7020771111082 394.61295965854487L771.7020771111082 394.61295965854487Q771.7020771111082 379.9485348150348 778.2583940384977 366.8165035728968L778.2583940384977 366.8165035728968Q775.1936068357535 368.07733375124093 771.3529241386437 368.07733375124093Q767.5122414415339 368.07733375124093 765.8246687412887 367.80577032821293L765.8246687412887 367.80577032821293Q764.5638385629445 373.10125707725825 763.3224057719597 378.4937307630993Q762.0615755936155 383.86680706158114 762.0615755936155 388.4639878656974ZM838.0411418793683 396.7078774933321L838.0411418793683 396.7078774933321Q848.9230761878459 396.7078774933321 859.1261019387538 388.0566427311555L859.1261019387538 388.0566427311555Q862.889195086427 384.83667642953816 865.2750737316013 382.1210421992585Q867.6415549894164 379.3860105816197 868.9023851677605 379.3860105816197L868.9023851677605 379.3860105816197Q870.8615212910337 379.3860105816197 870.8615212910337 383.3042828281661Q870.8615212910337 387.22255507471243 868.7666034562465 392.03310713977925Q866.6716856214593 396.843659204846 861.7835440069559 401.4602373963215L861.7835440069559 401.4602373963215Q849.757163844289 412.76891422670025 828.8079854964174 412.76891422670025L828.8079854964174 412.76891422670025Q812.2038219169933 412.76891422670025 806.1906318356598 400.7619314513924L806.1906318356598 400.7619314513924Q804.0957140008726 396.57209578181806 804.0957140008726 388.7549486760845Q804.0957140008726 380.9378015703509 807.1605012036168 372.4805406817658Q810.2446857937201 364.02327979318056 815.3461986691741 357.89370538769225Q820.4283141572688 351.7447335948447 827.1398101835314 348.3113960322769Q833.8513062097938 344.89745585706817 841.4550820545769 344.89745585706817Q849.05885789936 344.89745585706817 853.1905014068568 348.6605490047414Q857.3027475269946 352.4430395397738 857.3027475269946 358.43683223374813Q857.3027475269946 364.45002231508164 854.2961524863279 368.29070501219144Q851.3089548330202 372.13138770930124 846.5565949300309 374.7112402280669Q841.8042350270415 377.2910927468326 836.0044162066586 379.3278184195423Q830.2045973862755 381.3451467048929 824.6181498268431 383.86680706158114L824.6181498268431 383.86680706158114L824.6181498268431 387.3583367862264Q824.7733289257162 392.3822601122437 828.8079854964174 394.47717794703095Q832.8620394544778 396.57209578181806 838.0411418793683 396.7078774933321ZM835.655263234194 357.33118115427715L835.655263234194 357.33118115427715Q828.4006403618755 357.33118115427715 825.6074165821592 374.2263055440884L825.6074165821592 374.2263055440884Q828.5364220733894 372.2671694208152 831.1162745921552 370.73477581944314Q833.6961271109208 369.202382218071 835.655263234194 367.80577032821293L835.655263234194 367.80577032821293Q839.8450989037683 364.7215857381096 839.9808806152822 360.8227108789224L839.9808806152822 360.8227108789224Q839.9808806152822 357.33118115427715 835.655263234194 357.33118115427715ZM882.4417615444405 342.24001378886595L882.4417615444405 342.24001378886595Q887.4656848704578 342.24001378886595 891.9464813504192 351.88051530635875L891.9464813504192 351.88051530635875Q898.5027982778087 345.0332375685822 908.220889344738 345.0332375685822Q917.9195830243082 345.0332375685822 922.8077246388116 349.30066278759307Q927.6958662533149 353.5486906192448 927.6958662533149 361.3076455629009Q927.6958662533149 369.06660050655705 925.6785379679643 377.0195293238046Q923.6418122952546 384.97245814105213 922.7301350893749 388.40579570361996Q921.8378552708546 391.8197358788287 921.8378552708546 394.0504354251298Q921.8378552708546 396.3005323587901 923.3702488722265 396.3005323587901L923.3702488722265 396.3005323587901Q925.4651667070139 396.3005323587901 928.529953909758 393.64309029058785Q931.6141384998613 390.98564822238563 934.6789257026054 387.8432714702049Q937.7437129053496 384.7008947180242 940.3429628114744 382.043452649822Q942.9228153302402 379.3860105816197 943.8926846981972 379.3860105816197L943.8926846981972 379.3860105816197Q945.8518208214703 379.3860105816197 945.8518208214703 384.1383704846091L945.8518208214703 384.1383704846091Q945.8518208214703 393.91465371361585 936.2113193039775 402.99263099769354L936.2113193039775 402.99263099769354Q920.0145008590953 412.4973508036723 915.553101766493 412.4973508036723L915.553101766493 412.4973508036723Q915.1263592445919 412.4973508036723 914.9905775330781 412.36156909215833L914.9905775330781 412.36156909215833Q903.8176824142131 412.36156909215833 903.8176824142131 394.47717794703095L903.8176824142131 394.47717794703095Q903.8176824142131 386.79581255281136 905.2724864661486 380.3752773369359Q906.7466879054433 373.9547421210604 907.4449938503724 371.0063392424711Q908.1432997953013 368.07733375124093 908.1432997953013 365.01254654849674L908.1432997953013 365.01254654849674Q908.1432997953013 359.98862322247936 902.3434809749185 359.98862322247936Q896.5436621545355 359.98862322247936 891.3063675675676 368.56226843521944Q886.0690729805997 377.15531103531856 884.2651159561997 386.3690700309102L884.2651159561997 386.3690700309102L884.2651159561997 387.3583367862264Q884.2651159561997 392.1106966892158 885.7199200081352 397.1346200152331Q887.1941214474298 402.1585433412505 887.1941214474298 404.1176794645237L887.1941214474298 404.1176794645237Q887.1941214474298 408.8700393675131 875.322920383636 413.4672201716293L875.322920383636 413.4672201716293Q873.4995659718768 414.1655261165584 872.1029540820186 414.1655261165584L872.1029540820186 414.1655261165584Q868.6114243573734 414.1655261165584 867.2924020169519 410.5382146803991Q865.9733796765304 406.9109032442399 865.9733796765304 399.22953785002034L865.9733796765304 399.22953785002034Q865.9733796765304 379.3860105816197 867.5057732779023 370.5989941079292L867.5057732779023 370.5989941079292Q869.6006911126896 357.4669628657911 876.991095696522 346.15828603541235L876.991095696522 346.15828603541235Q879.5127560532103 342.24001378886595 882.4417615444405 342.24001378886595ZM1024.624610886939 378.9786654470778L1024.624610886939 378.9786654470778Q1027.1268738562683 378.9786654470778 1027.1268738562683 385.3992006629532L1027.1268738562683 385.3992006629532Q1027.1268738562683 388.89073038759847 1024.1978683650382 393.8564615515384Q1021.2688628738078 398.8027953281192 1016.5940925202551 402.9344388356161Q1011.9193221667023 407.04668495575385 1006.1776955083967 409.7041270239561Q1000.4554662374503 412.36156909215833 995.004800389532 412.36156909215833L995.004800389532 412.36156909215833Q987.3234349953123 412.36156909215833 984.9569537374972 399.7920620834354L984.9569537374972 399.7920620834354Q976.5772823983485 413.05987503708735 960.0895031430794 413.05987503708735L960.0895031430794 413.05987503708735Q950.0416564910446 413.05987503708735 944.028466409711 406.9109032442399Q938.0346737157367 400.7619314513924 938.1704554272507 391.95551759034265L938.1704554272507 391.95551759034265Q938.1704554272507 368.2131154627549 953.9599287375909 354.53795737456096L953.9599287375909 354.53795737456096Q964.8418630460686 345.16901928009617 976.5772823983485 345.16901928009617L976.5772823983485 345.16901928009617Q981.892166534753 345.16901928009617 984.9569537374972 346.0225043238983L984.9569537374972 346.0225043238983L988.1769200391145 346.85659198034136Q993.8991493100609 319.8942235511363 1001.4447329927665 310.8162462670586L1001.4447329927665 310.8162462670586Q1003.9469959620956 307.7514590643144 1006.4686563187838 307.7514590643144L1006.4686563187838 307.7514590643144Q1010.5227102768442 307.7514590643144 1014.0142400014895 313.33790662374685L1014.0142400014895 313.33790662374685Q1017.0790272042336 317.9350874278631 1017.0790272042336 321.2908354409944Q1017.0790272042336 324.6465834541257 1016.1091578362766 327.866549755743Q1015.1198910809604 331.06711867000115 1013.6650870290249 333.8021502876399Q1012.1908855897302 336.51778451791955 1010.3675311779709 339.0976370366852Q1008.5635741535709 341.6774895554509 1006.7402197418119 344.3349316236531L1006.7402197418119 344.3349316236531Q1002.6861657837514 359.4260989890643 1000.7464270478374 378.14457779063474L1000.7464270478374 378.14457779063474Q1000.1839028144223 383.44006453968007 1000.1839028144223 386.6600308412973L1000.1839028144223 386.6600308412973Q1000.1839028144223 396.3005323587901 1003.3844717286804 396.3005323587901L1003.3844717286804 396.3005323587901Q1007.031180552199 396.3005323587901 1020.99729945078 381.771889226794L1020.99729945078 381.771889226794Q1023.4995624201091 378.9786654470778 1024.624610886939 378.9786654470778ZM958.6928912532212 387.3583367862264L958.6928912532212 387.3583367862264Q958.6928912532212 398.1044893831901 966.6652174578278 398.1044893831901L966.6652174578278 398.1044893831901Q971.4175773608173 398.1044893831901 976.228129425884 394.47717794703095Q981.0386814909508 390.84986651087166 983.696123559153 382.3344134602091L983.696123559153 382.3344134602091Q983.9870843695402 369.7649064514861 986.6251290503833 354.67373908607493L986.6251290503833 354.67373908607493Q975.4522339315183 356.90443863237607 967.0725625923698 365.5750707819118Q958.6928912532212 374.2263055440884 958.6928912532212 387.3583367862264ZM1036.903157085275 412.36156909215833L1036.903157085275 412.36156909215833Q1022.937038186694 412.36156909215833 1022.937038186694 386.23328831939625L1022.937038186694 386.23328831939625Q1022.937038186694 371.99560599778727 1026.4285679113393 360.39596835702133L1026.4285679113393 360.39596835702133Q1031.8792337592577 342.53097459925306 1038.7265114970342 342.53097459925306L1038.7265114970342 342.53097459925306Q1042.7805654550946 342.53097459925306 1045.1470467129097 347.96224305981235L1045.1470467129097 347.96224305981235Q1047.1061828361828 352.1520787293867 1046.9704011246688 356.206132687447L1046.9704011246688 356.206132687447Q1046.9704011246688 361.7925802468794 1043.6146531115376 375.89448085697444L1043.6146531115376 375.89448085697444Q1040.3946868099204 388.19242444266945 1040.3946868099204 391.1214299338996Q1040.3946868099204 394.0504354251298 1041.868888249215 395.17548389195997Q1043.3430896885097 396.3005323587901 1045.3604179738602 396.3005323587901Q1047.3777462592109 396.3005323587901 1050.4619308493143 393.64309029058785Q1053.5267180520582 390.98564822238563 1056.6109026421616 387.8432714702049Q1059.6756898449057 384.7008947180242 1062.2555423636713 382.043452649822Q1064.8353948824372 379.3860105816197 1065.8246616377533 379.3860105816197L1065.8246616377533 379.3860105816197Q1067.7837977610266 379.3860105816197 1067.7837977610266 384.1383704846091L1067.7837977610266 384.1383704846091Q1067.7837977610266 393.91465371361585 1057.929924982583 403.2060022586441Q1048.0760522041398 412.4973508036723 1036.903157085275 412.36156909215833ZM1042.6447837435805 331.2029003815151L1042.6447837435805 331.2029003815151Q1038.8622932085482 325.6164528220827 1038.8622932085482 319.1959176062072Q1038.8622932085482 312.7753823903318 1040.899018881258 308.50795717132087Q1042.9163471666084 304.25992933966916 1044.7397015783677 302.2232036669594Q1046.5436586027677 300.20587538160885 1048.929537247942 300.20587538160885L1048.929537247942 300.20587538160885Q1052.8284121071292 300.20587538160885 1056.0483784087464 306.0056942019918Q1059.2489473230048 311.8055130223748 1059.2489473230048 315.70438788156196L1059.2489473230048 315.70438788156196Q1059.2489473230048 322.9784081412396 1054.16683183491 327.0906542613774Q1049.065318959456 331.2029003815151 1042.6447837435805 331.2029003815151ZM1087.1811851201667 353.4129089077308L1087.1811851201667 353.4129089077308Q1094.4552053798443 345.16901928009617 1105.7638822102233 345.16901928009617L1105.7638822102233 345.16901928009617Q1121.9607006551055 345.16901928009617 1126.2863180361937 358.30105052223416L1126.2863180361937 358.30105052223416Q1127.5471482145379 362.2193227687805 1127.5471482145379 366.9716826717699L1127.5471482145379 366.9716826717699Q1127.5471482145379 377.5820535572197 1120.6416783146838 387.92086101964145Q1113.7168110274708 398.24027109470416 1103.940527798464 401.88697991822255L1103.940527798464 401.88697991822255L1105.6281004987093 401.88697991822255Q1115.811728862258 401.88697991822255 1126.2863180361937 394.3413962355169L1126.2863180361937 394.3413962355169Q1132.9978140624562 389.58903633252754 1136.8384967595662 384.4875234570736Q1140.679179456676 379.3860105816197 1142.638315579949 379.3860105816197L1142.638315579949 379.3860105816197Q1144.5974517032223 379.3860105816197 1144.5974517032223 383.86680706158114L1144.5974517032223 383.86680706158114Q1144.5974517032223 391.6839541673147 1137.8859556769596 399.63688298456225L1137.8859556769596 399.63688298456225Q1127.838109024925 411.1007389138142 1112.1844174260987 413.05987503708735L1112.1844174260987 413.05987503708735Q1100.87574059572 414.30130782807237 1096.1233806927305 413.4672201716293Q1091.3710207897411 412.6331325151863 1088.868757820412 411.37230233684215L1088.868757820412 411.37230233684215Q1083.4180919724936 408.57907855712597 1083.4180919724936 402.99263099769354L1083.4180919724936 402.99263099769354Q1083.4180919724936 399.92784379494935 1084.6789221508377 397.4061834382611L1084.6789221508377 397.4061834382611Q1095.7160355581887 397.4061834382611 1101.4382648291348 389.0265120991125Q1107.1604941000815 380.6468407599639 1107.1604941000815 368.07733375124093L1107.1604941000815 368.07733375124093Q1107.1604941000815 365.01254654849674 1104.92979455378 362.56847574124504Q1102.6990950074792 360.1244049339934 1098.9941940218832 360.1244049339934Q1095.2892930362875 360.1244049339934 1090.963675655199 363.32497384825155Q1086.6380582741108 366.5449401498688 1084.0388083679861 371.3554922149356Q1081.4589558492203 376.18544166736154 1079.3640380144332 380.8602120209144Q1077.269120179646 385.53498237446723 1076.008290001302 392.6538235352717L1076.008290001302 392.6538235352717Q1073.7775904550008 405.5142913543818 1070.9261745132071 425.1250499744727Q1068.0553611840544 444.7552059819227 1067.3570552391252 446.2294074212174Q1066.6587492941962 447.6842114731529 1065.2621374043383 448.945041651497Q1063.8655255144802 450.2058718298411 1062.333131913108 450.2058718298411L1062.333131913108 450.2058718298411Q1059.5399081333917 450.2058718298411 1057.7165537216326 448.51829912959596L1057.7165537216326 448.51829912959596Q1052.6926303956152 444.1926817485076 1051.8585427391722 441.8843926527699Q1051.0244550827292 439.5955009443914 1051.0244550827292 435.94879212087295L1051.0244550827292 435.94879212087295Q1051.0244550827292 422.273634032679 1055.6216358868455 397.5419651497751Q1060.2382140783209 372.8296936542303 1071.5468909086997 346.15828603541235L1071.5468909086997 346.15828603541235Q1073.2150662215859 342.24001378886595 1077.4824914405965 342.24001378886595Q1081.7499166596076 342.24001378886595 1085.6487915187947 349.7855974715716L1085.6487915187947 349.7855974715716Q1086.7738399856248 351.7447335948447 1087.1811851201667 353.4129089077308ZM1154.373734932229 412.36156909215833L1154.373734932229 412.36156909215833Q1140.4076160336479 412.36156909215833 1140.4076160336479 386.23328831939625L1140.4076160336479 386.23328831939625Q1140.4076160336479 371.99560599778727 1143.8991457582933 360.39596835702133L1143.8991457582933 360.39596835702133Q1149.3304142188524 342.53097459925306 1156.1776919566291 342.53097459925306L1156.1776919566291 342.53097459925306Q1160.2317459146893 342.53097459925306 1162.5982271725045 347.96224305981235L1162.5982271725045 347.96224305981235Q1164.5573632957776 352.1520787293867 1164.4215815842635 356.206132687447L1164.4215815842635 356.206132687447Q1164.4215815842635 361.7925802468794 1161.0658335711323 375.89448085697444L1161.0658335711323 375.89448085697444Q1157.8652646568742 388.19242444266945 1157.8652646568742 391.1214299338996Q1157.8652646568742 394.0504354251298 1159.3200687088097 395.17548389195997Q1160.7942701481043 396.3005323587901 1162.811598433455 396.3005323587901Q1164.8483241061647 396.3005323587901 1167.9131113089088 393.64309029058785Q1170.9778985116532 390.98564822238563 1174.0620831017563 387.8432714702049Q1177.1268703045007 384.7008947180242 1179.7067228232663 382.043452649822Q1182.305972729391 379.3860105816197 1183.275842097348 379.3860105816197L1183.275842097348 379.3860105816197Q1185.2349782206213 379.3860105816197 1185.2349782206213 384.1383704846091L1185.2349782206213 384.1383704846091Q1185.2349782206213 393.91465371361585 1175.381105442178 403.2060022586441Q1165.5466300510939 412.4973508036723 1154.373734932229 412.36156909215833ZM1160.0959642031753 331.2029003815151L1160.0959642031753 331.2029003815151Q1156.3134736681432 325.6164528220827 1156.3134736681432 319.1959176062072Q1156.3134736681432 312.7753823903318 1158.3501993408527 308.50795717132087Q1160.3675276262034 304.25992933966916 1162.1908820379624 302.2232036669594Q1163.9948390623626 300.20587538160885 1166.3807177075369 300.20587538160885L1166.3807177075369 300.20587538160885Q1170.2795925667242 300.20587538160885 1173.4995588683414 306.0056942019918Q1176.7195251699586 311.8055130223748 1176.7195251699586 315.70438788156196L1176.7195251699586 315.70438788156196Q1176.7195251699586 322.9784081412396 1171.6180122945048 327.0906542613774Q1166.516499419051 331.2029003815151 1160.0959642031753 331.2029003815151ZM1184.4590827262555 404.3310507254742Q1182.8490995754469 400.62614973987843 1182.150793630518 395.6604185759385Q1181.452487685589 390.7140847993577 1181.452487685589 381.771889226794Q1181.452487685589 372.8296936542303 1184.8082356987202 357.60274457730515L1184.8082356987202 357.60274457730515L1178.5234821943586 357.60274457730515Q1176.8553068814726 357.60274457730515 1176.8553068814726 356.206132687447L1176.8553068814726 356.206132687447Q1176.8553068814726 352.85038467431576 1177.4760232769652 350.69727467745116Q1178.1161370598168 348.52476729322746 1180.482618317632 345.7315435135112L1180.482618317632 345.7315435135112L1183.8383663307632 345.7315435135112Q1185.7975024540362 345.7315435135112 1188.0282020003374 345.59576180199724L1188.0282020003374 345.59576180199724Q1194.720300639241 324.0840592207106 1201.7033600885313 324.0840592207106L1201.7033600885313 324.0840592207106Q1207.2898076479637 324.2198409322246 1209.5399045816241 331.2029003815151L1209.5399045816241 331.2029003815151Q1210.08303142768 333.16203650478826 1210.7813373726092 335.3927360510894L1210.7813373726092 335.3927360510894L1205.0591081016628 345.45998009048327Q1214.8353913306694 345.7315435135112 1217.415243849435 345.7315435135112Q1220.01449375556 345.7315435135112 1220.2084676291513 346.2164781974897Q1220.421838890102 346.7208102688274 1220.421838890102 347.6906796367844L1220.421838890102 347.6906796367844Q1220.421838890102 350.21233999347265 1219.2385982611943 353.97543314114586Q1218.0553576322866 357.7385262888191 1216.5229640309146 357.60274457730515L1216.5229640309146 357.60274457730515L1202.5568451323334 356.90443863237607Q1199.6084422537442 373.9547421210604 1199.6084422537442 385.12763723992526Q1199.6084422537442 396.3005323587901 1202.8284085553614 396.3005323587901L1202.8284085553614 396.3005323587901Q1205.4858506235637 396.3005323587901 1212.4689100728544 391.8973254282652Q1219.451969522145 387.4941184977404 1222.5167567248889 383.44006453968007Q1225.6009413149923 379.3860105816197 1227.5406800509063 379.3860105816197L1227.5406800509063 379.3860105816197Q1229.4998161741794 379.3860105816197 1229.4998161741794 384.1383704846091Q1229.4998161741794 388.89073038759847 1226.1440681610482 393.8564615515384Q1222.8077175352762 398.8027953281192 1217.7062046598223 402.9344388356161Q1212.6046917843682 407.04668495575385 1206.3975278294433 409.7041270239561Q1200.1709664871594 412.36156909215833 1195.573785683043 412.36156909215833Q1190.9572074915677 412.36156909215833 1188.5131366843161 410.1890617079346Q1186.0690658770643 408.01655432371086 1184.4590827262555 404.3310507254742ZM1260.0894960395437 401.7318008193494L1260.0894960395437 401.7318008193494Q1253.1064365902532 411.37230233684215 1241.3710172379735 411.37230233684215L1241.3710172379735 411.37230233684215Q1231.8856948193536 411.37230233684215 1226.2216577104848 407.3958379282184Q1220.5576206016158 403.4193735195946 1220.5576206016158 394.7487413700589L1220.5576206016158 394.7487413700589Q1220.5576206016158 391.1214299338996 1221.6050795190095 388.0566427311555Q1222.652538436403 384.97245814105213 1225.038417081577 380.51105904844985L1225.038417081577 380.51105904844985L1229.0924710396375 347.41911621375647Q1233.418088420726 344.0633682006252 1240.8084930045584 344.0633682006252L1240.8084930045584 344.0633682006252Q1247.0932465089197 344.0633682006252 1247.946731552722 352.4430395397738L1247.946731552722 352.4430395397738Q1248.21829497575 354.9453025091029 1248.21829497575 358.37864007167076Q1248.21829497575 361.7925802468794 1247.0932465089197 365.5750707819118L1247.0932465089197 365.5750707819118Q1241.5067989494873 384.83667642953816 1241.6619780483604 391.4123907442867L1241.6619780483604 391.4123907442867Q1241.6619780483604 396.4363140703041 1247.5199890308209 396.4363140703041Q1253.3780000132813 396.4363140703041 1256.1712237929976 392.6538235352717Q1258.9644475727137 388.89073038759847 1260.9235836959867 383.3042828281661L1260.9235836959867 383.3042828281661Q1264.550895132146 367.80577032821293 1267.6932718843268 357.7385262888191Q1270.8356486365076 347.6906796367844 1271.6891336803099 345.7315435135112L1271.6891336803099 345.7315435135112Q1273.0857455701678 342.37579550038 1276.9846204293551 342.24001378886595L1276.9846204293551 342.24001378886595Q1280.9028926759013 342.37579550038 1284.3944224005465 347.76826918622095Q1287.8859521251918 353.14134548470287 1287.8859521251918 356.070350975933L1287.8859521251918 356.070350975933Q1287.594991314805 365.8466342049398 1275.723790251011 405.3785096428678L1275.723790251011 405.3785096428678Q1284.8017675350886 398.24027109470416 1293.7439631076525 387.92086101964145L1293.7439631076525 387.92086101964145Q1296.8281476977556 384.2741521961231 1298.9230655325428 381.8300813888714Q1301.0179833673299 379.3860105816197 1302.259416158315 379.3860105816197L1302.259416158315 379.3860105816197Q1304.2185522815882 379.3860105816197 1304.2185522815882 383.86680706158114L1304.2185522815882 383.86680706158114Q1304.2185522815882 392.6538235352717 1294.384076890504 404.38924288755163Q1284.5302041120606 416.12466223983154 1270.2925217904515 422.680979167221L1270.2925217904515 422.680979167221Q1268.6049490902064 428.2674267266534 1266.6458129669334 433.3107474400299Q1264.7060742310193 438.3346707660473 1261.621889640916 442.0977639137205L1261.621889640916 442.0977639137205Q1254.9297910020125 450.2058718298411 1241.2352355264593 450.2058718298411L1241.2352355264593 450.2058718298411Q1232.0214765308676 450.2058718298411 1225.5233517655558 444.89098769343667Q1219.0252270002436 439.5955009443914 1219.0252270002436 431.6231747397847L1219.0252270002436 431.6231747397847Q1219.0252270002436 427.1617756471824 1222.0318220409106 424.50433357898015Q1225.038417081577 421.84689151077794 1230.275711668545 420.1011266484553Q1235.513006255513 418.3553617861327 1242.4960657048034 417.0363394457111Q1249.479125154094 415.69791971793046 1257.4320539713415 413.7581809820164L1257.4320539713415 413.7581809820164Q1259.3911900946148 405.3785096428678 1260.0894960395437 401.7318008193494ZM1241.0994538149455 439.44032184551827L1241.0994538149455 439.44032184551827Q1247.6557707423349 439.44032184551827 1252.9706548787392 427.9958633036254L1252.9706548787392 427.9958633036254Q1247.946731552722 428.96573267158243 1244.0284593061756 429.4700647429201Q1240.1101870596292 429.9549994268986 1237.316963279913 430.3623445614406L1237.316963279913 430.3623445614406Q1231.7305157204808 431.21582960524273 1231.8856948193536 433.3107474400299L1231.8856948193536 433.3107474400299Q1231.8856948193536 435.94879212087295 1235.0280715715346 437.7721465326321Q1238.1704483237152 439.5955009443914 1241.0994538149455 439.44032184551827Z " fill="#fb6f92" transform="matrix(0.6708998291083605,0,0,0.6708998291083605,0,48.27446843832206)"/></g></svg>